<mxfile host="Electron" agent="Mozilla/5.0 (Windows NT 10.0; Win64; x64) AppleWebKit/537.36 (KHTML, like Gecko) draw.io/26.0.4 Chrome/128.0.6613.186 Electron/32.2.5 Safari/537.36" version="26.0.4">
  <diagram id="C5RBs43oDa-KdzZeNtuy" name="Page-1">
    <mxGraphModel dx="880" dy="532" grid="1" gridSize="10" guides="1" tooltips="1" connect="1" arrows="1" fold="1" page="1" pageScale="1" pageWidth="827" pageHeight="1169" math="0" shadow="0">
      <root>
        <mxCell id="WIyWlLk6GJQsqaUBKTNV-0" />
        <mxCell id="WIyWlLk6GJQsqaUBKTNV-1" parent="WIyWlLk6GJQsqaUBKTNV-0" />
        <mxCell id="WIyWlLk6GJQsqaUBKTNV-6" value="Rescaling" style="rhombus;whiteSpace=wrap;html=1;shadow=0;fontFamily=Helvetica;fontSize=12;align=center;strokeWidth=1;spacing=6;spacingTop=-4;" parent="WIyWlLk6GJQsqaUBKTNV-1" vertex="1">
          <mxGeometry x="310" y="100" width="100" height="80" as="geometry" />
        </mxCell>
        <mxCell id="WIyWlLk6GJQsqaUBKTNV-9" value="Yes" style="edgeStyle=orthogonalEdgeStyle;rounded=0;html=1;jettySize=auto;orthogonalLoop=1;fontSize=11;endArrow=block;endFill=0;endSize=8;strokeWidth=1;shadow=0;labelBackgroundColor=none;exitX=0;exitY=0.5;exitDx=0;exitDy=0;" parent="WIyWlLk6GJQsqaUBKTNV-1" source="WIyWlLk6GJQsqaUBKTNV-6" edge="1">
          <mxGeometry y="10" relative="1" as="geometry">
            <mxPoint as="offset" />
            <mxPoint x="220" y="260" as="sourcePoint" />
            <mxPoint x="190" y="220" as="targetPoint" />
            <Array as="points">
              <mxPoint x="190" y="140" />
            </Array>
          </mxGeometry>
        </mxCell>
        <mxCell id="WIyWlLk6GJQsqaUBKTNV-11" value="Row_Path" style="rounded=1;whiteSpace=wrap;html=1;fontSize=12;glass=0;strokeWidth=1;shadow=0;" parent="WIyWlLk6GJQsqaUBKTNV-1" vertex="1">
          <mxGeometry x="300" y="220" width="120" height="40" as="geometry" />
        </mxCell>
        <mxCell id="Wwwhg54cZIhMVRK-5Ul--1" value="No" style="edgeStyle=orthogonalEdgeStyle;rounded=0;html=1;jettySize=auto;orthogonalLoop=1;fontSize=11;endArrow=block;endFill=0;endSize=8;strokeWidth=1;shadow=0;labelBackgroundColor=none;exitX=1;exitY=0.5;exitDx=0;exitDy=0;" edge="1" parent="WIyWlLk6GJQsqaUBKTNV-1" source="WIyWlLk6GJQsqaUBKTNV-6">
          <mxGeometry x="0.0256" y="-10" relative="1" as="geometry">
            <mxPoint as="offset" />
            <mxPoint x="450" y="170" as="sourcePoint" />
            <mxPoint x="525" y="220" as="targetPoint" />
            <Array as="points">
              <mxPoint x="525" y="140" />
              <mxPoint x="525" y="210" />
            </Array>
          </mxGeometry>
        </mxCell>
        <mxCell id="Wwwhg54cZIhMVRK-5Ul--8" value="" style="group" vertex="1" connectable="0" parent="WIyWlLk6GJQsqaUBKTNV-1">
          <mxGeometry x="123" y="220" width="60" height="50" as="geometry" />
        </mxCell>
        <mxCell id="Wwwhg54cZIhMVRK-5Ul--6" value="" style="ellipse;whiteSpace=wrap;html=1;" vertex="1" parent="Wwwhg54cZIhMVRK-5Ul--8">
          <mxGeometry x="5" width="50" height="50" as="geometry" />
        </mxCell>
        <mxCell id="Wwwhg54cZIhMVRK-5Ul--2" value="150039" style="text;html=1;align=center;verticalAlign=middle;whiteSpace=wrap;rounded=0;" vertex="1" parent="Wwwhg54cZIhMVRK-5Ul--8">
          <mxGeometry y="10" width="60" height="30" as="geometry" />
        </mxCell>
        <mxCell id="Wwwhg54cZIhMVRK-5Ul--17" value="" style="group" vertex="1" connectable="0" parent="WIyWlLk6GJQsqaUBKTNV-1">
          <mxGeometry x="200" y="220" width="60" height="50" as="geometry" />
        </mxCell>
        <mxCell id="Wwwhg54cZIhMVRK-5Ul--18" value="" style="ellipse;whiteSpace=wrap;html=1;" vertex="1" parent="Wwwhg54cZIhMVRK-5Ul--17">
          <mxGeometry x="5" width="50" height="50" as="geometry" />
        </mxCell>
        <mxCell id="Wwwhg54cZIhMVRK-5Ul--19" value="149039" style="text;html=1;align=center;verticalAlign=middle;whiteSpace=wrap;rounded=0;" vertex="1" parent="Wwwhg54cZIhMVRK-5Ul--17">
          <mxGeometry y="10" width="60" height="30" as="geometry" />
        </mxCell>
        <mxCell id="Wwwhg54cZIhMVRK-5Ul--25" value="" style="edgeStyle=orthogonalEdgeStyle;rounded=0;orthogonalLoop=1;jettySize=auto;html=1;" edge="1" parent="WIyWlLk6GJQsqaUBKTNV-1" source="Wwwhg54cZIhMVRK-5Ul--20">
          <mxGeometry relative="1" as="geometry">
            <mxPoint x="189" y="450" as="targetPoint" />
          </mxGeometry>
        </mxCell>
        <mxCell id="Wwwhg54cZIhMVRK-5Ul--20" value="Combine_&lt;div&gt;validations&lt;/div&gt;" style="rhombus;whiteSpace=wrap;html=1;shadow=0;fontFamily=Helvetica;fontSize=12;align=center;strokeWidth=1;spacing=6;spacingTop=-4;" vertex="1" parent="WIyWlLk6GJQsqaUBKTNV-1">
          <mxGeometry x="144" y="280" width="90" height="80" as="geometry" />
        </mxCell>
        <mxCell id="Wwwhg54cZIhMVRK-5Ul--21" style="edgeStyle=orthogonalEdgeStyle;rounded=0;orthogonalLoop=1;jettySize=auto;html=1;entryX=0;entryY=0.5;entryDx=0;entryDy=0;" edge="1" parent="WIyWlLk6GJQsqaUBKTNV-1" source="Wwwhg54cZIhMVRK-5Ul--2" target="Wwwhg54cZIhMVRK-5Ul--20">
          <mxGeometry relative="1" as="geometry">
            <Array as="points">
              <mxPoint x="120" y="245" />
              <mxPoint x="120" y="320" />
            </Array>
          </mxGeometry>
        </mxCell>
        <mxCell id="Wwwhg54cZIhMVRK-5Ul--22" style="edgeStyle=orthogonalEdgeStyle;rounded=0;orthogonalLoop=1;jettySize=auto;html=1;entryX=1;entryY=0.5;entryDx=0;entryDy=0;" edge="1" parent="WIyWlLk6GJQsqaUBKTNV-1" source="Wwwhg54cZIhMVRK-5Ul--19" target="Wwwhg54cZIhMVRK-5Ul--20">
          <mxGeometry relative="1" as="geometry">
            <Array as="points">
              <mxPoint x="270" y="245" />
              <mxPoint x="270" y="320" />
            </Array>
          </mxGeometry>
        </mxCell>
        <mxCell id="Wwwhg54cZIhMVRK-5Ul--26" value="" style="group" vertex="1" connectable="0" parent="WIyWlLk6GJQsqaUBKTNV-1">
          <mxGeometry x="453" y="220" width="60" height="50" as="geometry" />
        </mxCell>
        <mxCell id="Wwwhg54cZIhMVRK-5Ul--27" value="" style="ellipse;whiteSpace=wrap;html=1;" vertex="1" parent="Wwwhg54cZIhMVRK-5Ul--26">
          <mxGeometry x="5" width="50" height="50" as="geometry" />
        </mxCell>
        <mxCell id="Wwwhg54cZIhMVRK-5Ul--28" value="150039" style="text;html=1;align=center;verticalAlign=middle;whiteSpace=wrap;rounded=0;" vertex="1" parent="Wwwhg54cZIhMVRK-5Ul--26">
          <mxGeometry y="10" width="60" height="30" as="geometry" />
        </mxCell>
        <mxCell id="Wwwhg54cZIhMVRK-5Ul--29" value="" style="group" vertex="1" connectable="0" parent="WIyWlLk6GJQsqaUBKTNV-1">
          <mxGeometry x="530" y="220" width="60" height="50" as="geometry" />
        </mxCell>
        <mxCell id="Wwwhg54cZIhMVRK-5Ul--30" value="" style="ellipse;whiteSpace=wrap;html=1;" vertex="1" parent="Wwwhg54cZIhMVRK-5Ul--29">
          <mxGeometry x="5" width="50" height="50" as="geometry" />
        </mxCell>
        <mxCell id="Wwwhg54cZIhMVRK-5Ul--31" value="149039" style="text;html=1;align=center;verticalAlign=middle;whiteSpace=wrap;rounded=0;" vertex="1" parent="Wwwhg54cZIhMVRK-5Ul--29">
          <mxGeometry y="10" width="60" height="30" as="geometry" />
        </mxCell>
        <mxCell id="Wwwhg54cZIhMVRK-5Ul--32" value="" style="edgeStyle=orthogonalEdgeStyle;rounded=0;orthogonalLoop=1;jettySize=auto;html=1;" edge="1" parent="WIyWlLk6GJQsqaUBKTNV-1" source="Wwwhg54cZIhMVRK-5Ul--33">
          <mxGeometry relative="1" as="geometry">
            <mxPoint x="519" y="450" as="targetPoint" />
          </mxGeometry>
        </mxCell>
        <mxCell id="Wwwhg54cZIhMVRK-5Ul--33" value="Combine_&lt;div&gt;validations&lt;/div&gt;" style="rhombus;whiteSpace=wrap;html=1;shadow=0;fontFamily=Helvetica;fontSize=12;align=center;strokeWidth=1;spacing=6;spacingTop=-4;" vertex="1" parent="WIyWlLk6GJQsqaUBKTNV-1">
          <mxGeometry x="474" y="280" width="90" height="80" as="geometry" />
        </mxCell>
        <mxCell id="Wwwhg54cZIhMVRK-5Ul--34" style="edgeStyle=orthogonalEdgeStyle;rounded=0;orthogonalLoop=1;jettySize=auto;html=1;entryX=0;entryY=0.5;entryDx=0;entryDy=0;" edge="1" parent="WIyWlLk6GJQsqaUBKTNV-1" source="Wwwhg54cZIhMVRK-5Ul--28" target="Wwwhg54cZIhMVRK-5Ul--33">
          <mxGeometry relative="1" as="geometry">
            <Array as="points">
              <mxPoint x="450" y="245" />
              <mxPoint x="450" y="320" />
            </Array>
          </mxGeometry>
        </mxCell>
        <mxCell id="Wwwhg54cZIhMVRK-5Ul--35" style="edgeStyle=orthogonalEdgeStyle;rounded=0;orthogonalLoop=1;jettySize=auto;html=1;entryX=1;entryY=0.5;entryDx=0;entryDy=0;" edge="1" parent="WIyWlLk6GJQsqaUBKTNV-1" source="Wwwhg54cZIhMVRK-5Ul--31" target="Wwwhg54cZIhMVRK-5Ul--33">
          <mxGeometry relative="1" as="geometry">
            <Array as="points">
              <mxPoint x="600" y="245" />
              <mxPoint x="600" y="320" />
            </Array>
          </mxGeometry>
        </mxCell>
      </root>
    </mxGraphModel>
  </diagram>
</mxfile>
